<?xml version="1.0" standalone="no"?>
<!DOCTYPE svg PUBLIC "-//W3C//DTD SVG 20010904//EN"
 "http://www.w3.org/TR/2001/REC-SVG-20010904/DTD/svg10.dtd">
<svg version="1.0" xmlns="http://www.w3.org/2000/svg"
 width="573.000000pt" height="573.000000pt" viewBox="0 0 573.000000 573.000000"
 preserveAspectRatio="xMidYMid meet">
<metadata>
Created by potrace 1.11, written by Peter Selinger 2001-2013
</metadata>
<g transform="translate(0.000000,573.000000) scale(0.100000,-0.100000)"
fill="#000000" stroke="none">
<path d="M2700 5235 c-41 -7 -87 -18 -102 -24 -16 -6 -28 -9 -28 -6 0 4 -110
-39 -160 -63 -173 -84 -352 -260 -451 -442 -13 -25 -26 -47 -29 -50 -10 -10
-90 -153 -90 -161 0 -5 -4 -9 -10 -9 -5 0 -10 -5 -10 -10 0 -6 -16 -36 -35
-66 -19 -30 -35 -56 -35 -58 0 -3 -21 -40 -46 -83 -95 -160 -388 -660 -421
-718 -19 -33 -47 -80 -62 -105 -15 -25 -53 -88 -83 -140 -31 -52 -91 -156
-135 -230 -44 -74 -91 -155 -105 -180 -14 -25 -78 -135 -143 -245 -136 -230
-170 -288 -237 -405 -27 -47 -67 -114 -89 -149 -21 -34 -39 -65 -39 -67 0 -2
-17 -32 -38 -66 -121 -198 -169 -319 -197 -493 -7 -47 -8 -219 0 -255 2 -13 7
-42 11 -64 10 -67 54 -197 92 -271 110 -212 274 -371 481 -467 93 -44 97 -45
191 -70 l85 -23 1830 0 c1007 0 1853 3 1880 7 417 62 758 397 846 833 14 68
17 255 5 330 -25 161 -61 246 -221 520 -48 83 -96 164 -106 182 -10 17 -29 50
-43 72 -15 22 -26 43 -26 46 0 3 -8 18 -19 33 -15 22 -70 116 -181 307 -9 17
-64 109 -120 205 -57 96 -108 184 -114 195 -7 11 -38 65 -70 120 -195 330
-291 494 -309 525 -10 19 -57 99 -103 177 -194 329 -253 430 -272 463 -115
204 -275 468 -316 520 -154 200 -373 334 -619 381 -88 17 -269 18 -357 4z"/>
</g>
</svg>
