<svg width="138" height="138" viewBox="0 0 138 138" fill="#e6e6e6" xmlns="http://www.w3.org/2000/svg">
<path   fill-rule="evenodd" clip-rule="evenodd" d="M110.294 29.9931C118.957 39.9808 124.2 53.0156 124.2 67.275C124.2 98.7138 98.7138 124.2 67.275 124.2C35.8362 124.2 10.35 98.7138 10.35 67.275C10.35 35.8362 35.8362 10.35 67.275 10.35C78.7215 10.35 89.379 13.7285 98.3046 19.5427C99.3381 19.1237 100.468 18.8929 101.652 18.8929C106.574 18.8929 110.564 22.8831 110.564 27.8054C110.564 28.5602 110.47 29.2931 110.294 29.9931ZM93.3442 24.5712C85.7525 19.9268 76.8263 17.25 67.275 17.25C39.6469 17.25 17.25 39.647 17.25 67.275C17.25 94.9031 39.6469 117.3 67.275 117.3C94.903 117.3 117.3 94.9031 117.3 67.275C117.3 55.252 113.058 44.2196 105.99 35.5925C104.706 36.3093 103.227 36.7179 101.652 36.7179C96.7295 36.7179 92.7393 32.7276 92.7393 27.8054C92.7393 26.6646 92.9536 25.5738 93.3442 24.5712ZM68.5482 95.2857C53.7815 95.2857 41.8107 83.3149 41.8107 68.5482C41.8107 53.7815 53.7815 41.8107 68.5482 41.8107C83.3149 41.8107 95.2857 53.7815 95.2857 68.5482C95.2857 83.3149 83.3149 95.2857 68.5482 95.2857ZM65.1292 65.1293H57.2998V72.0293H65.1292V79.7967H72.0292V72.0293H79.7966V65.1293H72.0292V57.2998H65.1292V65.1293Z" fill="#e6e6e6"/>
<circle cx="101.5" cy="27.5" r="10.5" fill="#56A2E9"/>
<circle cx="67.5" cy="68.5" r="28.5" fill="#F32DA0"/>
</svg>
