<svg width="137" height="137" viewBox="0 0 137 137" fill="none" xmlns="http://www.w3.org/2000/svg">
<path d="M137 0H0V137H137V0Z" fill="white"/>
<path d="M34.522 101.037V99.325C34.522 93.6503 39.1223 89.05 44.797 89.05C50.4717 89.05 55.072 93.6503 55.072 99.325V101.037H118.19C120.082 101.037 121.615 102.571 121.615 104.463C121.615 106.354 120.082 107.887 118.19 107.887H55.072V109.6C55.072 115.275 50.4717 119.875 44.797 119.875C39.1223 119.875 34.522 115.275 34.522 109.6V107.887H18.552C16.6605 107.887 15.127 106.354 15.127 104.463C15.127 102.571 16.6605 101.037 18.552 101.037H34.522ZM80.3314 65.075V63.3625C80.3314 57.6878 84.9316 53.0875 90.6064 53.0875C96.2811 53.0875 100.881 57.6878 100.881 63.3625V65.075H118.19C120.082 65.075 121.615 66.6084 121.615 68.5C121.615 70.3916 120.082 71.925 118.19 71.925H100.881V73.6375C100.881 79.3122 96.2811 83.9125 90.6064 83.9125C84.9316 83.9125 80.3314 79.3122 80.3314 73.6375V71.925H18.552C16.6605 71.925 15.127 70.3916 15.127 68.5C15.127 66.6084 16.6605 65.075 18.552 65.075H80.3314ZM87.1814 65.075H94.0314V63.3625C94.0314 61.4709 92.4979 59.9375 90.6064 59.9375C88.7148 59.9375 87.1814 61.4709 87.1814 63.3625V65.075ZM94.0314 71.925H87.1814V73.6375C87.1814 75.5291 88.7148 77.0625 90.6064 77.0625C92.4979 77.0625 94.0314 75.5291 94.0314 73.6375V71.925ZM34.522 30.3969V27.4C34.522 21.7253 39.1223 17.125 44.797 17.125C50.4717 17.125 55.072 21.7253 55.072 27.4V30.3969H118.19C120.082 30.3969 121.615 31.9303 121.615 33.8219C121.615 35.7134 120.082 37.2469 118.19 37.2469H55.072V37.675C55.072 43.3497 50.4717 47.95 44.797 47.95C39.1223 47.95 34.522 43.3497 34.522 37.675V37.2469H18.552C16.6605 37.2469 15.127 35.7134 15.127 33.8219C15.127 31.9303 16.6605 30.3969 18.552 30.3969H34.522Z" fill="#e6e6e6" />
<path fill-rule="evenodd" clip-rule="evenodd" d="M90.6063 59.9375C92.4979 59.9375 94.0313 61.4709 94.0313 63.3625V73.6375C94.0313 75.5291 92.4979 77.0625 90.6063 77.0625C88.7148 77.0625 87.1813 75.5291 87.1813 73.6375V63.3625C87.1813 61.4709 88.7148 59.9375 90.6063 59.9375Z" fill="white"/>
<rect x="34" y="17" width="21.5" height="31.25" rx="10.75" fill="#F32DA0"/>
<rect x="34" y="89" width="21.5" height="31.25" rx="10.75" fill="#F32DA0"/>
<rect x="83.5" y="56.5" width="14.5" height="24.25" rx="7.25" stroke="#56A2E9" stroke-width="7"/>
</svg>
