<svg width="137" height="137" viewBox="0 0 137 137" fill="none" xmlns="http://www.w3.org/2000/svg">
<path d="M68.4283 30.5526C74.3608 23.9155 83.0206 19.7339 92.6613 19.7339C110.536 19.7339 125.039 34.1091 125.039 51.8569C125.039 61.3933 120.852 69.956 114.204 75.8379L68.9729 119.612L24.3056 75.3371C17.9752 69.2956 13.7 61.1855 13.7 51.8569C13.7 34.5666 27.8408 20.55 45.2845 20.55C54.4262 20.55 62.6608 24.3996 68.4283 30.5526ZM64.3512 36.2567L63.8251 35.6682C59.1548 30.4438 52.4781 27.4 45.2845 27.4C31.6105 27.4 20.55 38.3633 20.55 51.8569C20.55 58.9431 23.6061 65.5294 28.8668 70.1499L34.036 75.3371L69.0302 110.024L96.1292 83.7978C94.9898 83.9182 93.8328 83.9799 92.6613 83.9799C74.7864 83.9799 60.2838 69.6048 60.2838 51.8569C60.2838 46.1944 61.7601 40.8752 64.3512 36.2567ZM89.2363 48.4319H80.0242V55.2819H89.2363V64.4131H96.0863V55.2819H105.298V48.4319H96.0863V39.3007H89.2363V48.4319Z" fill="#e6e6e6" />
<circle cx="92" cy="53" r="33" fill="#F32DA0"/>
</svg>
