<svg width="272" height="272" viewBox="0 0 272 272" fill="none" xmlns="http://www.w3.org/2000/svg">
<path d="M161.843 125.046C161.055 124.78 160.261 124.533 159.461 124.306C159.595 123.764 159.719 123.229 159.829 122.704C161.632 114.071 160.453 107.116 156.427 104.826C152.566 102.631 146.253 104.92 139.877 110.393C139.248 110.933 138.634 111.489 138.034 112.06C137.632 111.68 137.224 111.308 136.808 110.943C130.126 105.092 123.427 102.625 119.405 104.922C115.549 107.124 114.406 113.662 116.03 121.843C116.191 122.653 116.374 123.46 116.577 124.261C115.629 124.526 114.714 124.809 113.838 125.11C106.003 127.804 101 132.026 101 136.405C101 140.928 106.371 145.465 114.532 148.216C115.193 148.438 115.86 148.644 116.532 148.833C116.314 149.696 116.12 150.565 115.951 151.438C114.404 159.478 115.612 165.861 119.459 168.049C123.432 170.309 130.1 167.986 136.592 162.389C137.119 161.934 137.634 161.466 138.136 160.985C138.786 161.603 139.453 162.204 140.137 162.785C146.426 168.123 152.638 170.278 156.48 168.084C160.449 165.818 161.74 158.96 160.065 150.617C159.933 149.963 159.785 149.313 159.621 148.667C160.089 148.53 160.549 148.389 160.997 148.242C169.48 145.47 175 140.989 175 136.405C175 132.01 169.835 127.76 161.843 125.046V125.046ZM160.003 145.283C159.598 145.415 159.183 145.543 158.76 145.667C157.823 142.742 156.56 139.633 155.013 136.421C156.489 133.285 157.704 130.215 158.614 127.31C159.371 127.526 160.106 127.754 160.814 127.994C167.662 130.319 171.839 133.757 171.839 136.405C171.839 139.227 167.328 142.889 160.003 145.283V145.283ZM156.964 151.223C157.704 154.912 157.81 158.247 157.319 160.855C156.879 163.198 155.992 164.76 154.896 165.386C152.564 166.717 147.577 164.987 142.199 160.422C141.563 159.881 140.942 159.323 140.338 158.748C142.423 156.499 144.507 153.885 146.541 150.981C150.118 150.668 153.498 150.156 156.563 149.457C156.714 150.058 156.848 150.647 156.964 151.223V151.223ZM126.228 165.156C123.95 165.949 122.135 165.972 121.038 165.348C118.704 164.021 117.734 158.895 119.057 152.02C119.214 151.207 119.395 150.399 119.597 149.597C122.629 150.258 125.984 150.734 129.569 151.021C131.617 153.862 133.761 156.474 135.922 158.761C135.463 159.199 134.993 159.626 134.512 160.041C131.641 162.516 128.764 164.273 126.228 165.156V165.156ZM115.554 145.266C111.946 144.049 108.966 142.468 106.923 140.743C105.088 139.193 104.161 137.654 104.161 136.405C104.161 133.748 108.179 130.358 114.879 128.054C115.692 127.775 116.543 127.511 117.426 127.264C118.352 130.234 119.567 133.341 121.033 136.481C119.548 139.669 118.316 142.824 117.381 145.83C116.767 145.657 116.158 145.469 115.554 145.266V145.266ZM119.132 121.244C117.742 114.235 118.665 108.947 120.99 107.62C123.465 106.207 128.939 108.222 134.709 113.275C135.086 113.605 135.456 113.942 135.82 114.286C133.67 116.563 131.545 119.155 129.516 121.979C126.035 122.298 122.704 122.809 119.641 123.493C119.452 122.748 119.283 121.998 119.132 121.245V121.244ZM151.053 129.018C150.329 127.786 149.579 126.569 148.802 125.368C151.163 125.663 153.426 126.053 155.55 126.531C154.912 128.547 154.117 130.655 153.182 132.816C152.498 131.536 151.788 130.27 151.053 129.018V129.018ZM138.036 116.514C139.494 118.072 140.954 119.811 142.39 121.698C139.477 121.563 136.558 121.562 133.644 121.697C135.082 119.827 136.555 118.09 138.036 116.514ZM124.935 129.039C124.209 130.281 123.512 131.54 122.846 132.813C121.926 130.66 121.138 128.543 120.495 126.498C122.606 126.032 124.857 125.651 127.204 125.362C126.418 126.57 125.662 127.796 124.935 129.039V129.039ZM127.271 147.67C124.847 147.404 122.562 147.042 120.451 146.589C121.104 144.508 121.909 142.346 122.85 140.146C123.519 141.421 124.218 142.68 124.947 143.922C125.697 145.2 126.474 146.451 127.271 147.67ZM138.123 156.517C136.624 154.923 135.13 153.159 133.67 151.262C135.087 151.316 136.532 151.344 138 151.344C139.508 151.344 140.999 151.311 142.467 151.247C141.026 153.178 139.571 154.944 138.123 156.517ZM153.211 140.034C154.201 142.257 155.034 144.408 155.696 146.454C153.551 146.937 151.234 147.326 148.793 147.615C149.575 146.392 150.333 145.154 151.065 143.901C151.809 142.628 152.525 141.338 153.211 140.034V140.034ZM148.327 142.343C147.206 144.264 146.022 146.148 144.777 147.992C142.521 148.15 140.261 148.228 138 148.227C135.697 148.227 133.457 148.156 131.3 148.018C130.023 146.178 128.816 144.291 127.683 142.36H127.683C126.556 140.44 125.503 138.479 124.526 136.48C125.5 134.481 126.55 132.518 127.674 130.597L127.674 130.597C128.797 128.675 129.994 126.796 131.262 124.963C133.462 124.799 135.719 124.713 138 124.713H138C140.291 124.713 142.551 124.8 144.751 124.965C146.006 126.795 147.195 128.668 148.316 130.58C149.444 132.497 150.508 134.45 151.506 136.436C150.518 138.442 149.457 140.412 148.327 142.343V142.343ZM154.848 107.527C157.326 108.937 158.29 114.621 156.733 122.074C156.633 122.55 156.522 123.034 156.4 123.525C153.33 122.826 149.996 122.306 146.506 121.983C144.472 119.128 142.365 116.531 140.25 114.284C140.805 113.757 141.372 113.244 141.952 112.744C147.416 108.056 152.522 106.204 154.848 107.527V107.527ZM138 129.888C141.649 129.888 144.608 132.806 144.608 136.405C144.608 140.005 141.649 142.923 138 142.923C134.351 142.923 131.392 140.005 131.392 136.405C131.392 132.806 134.351 129.888 138 129.888V129.888Z" fill="#129BF7"/>
<circle cx="136" cy="138" r="74.5" stroke="black"/>
<circle cx="136.5" cy="135.5" r="107" stroke="#AAAAAA"/>
<circle cx="136" cy="136" r="135.5" stroke="#E2E2E2"/>
</svg>
