<svg width="318" height="54" viewBox="0 0 318 54" fill="none" xmlns="http://www.w3.org/2000/svg">
<g filter="url(#filter0_d)">
<path d="M7 13.48C7 9.30119 7 7.21179 7.76138 5.59377C8.55403 3.90931 9.90931 2.55403 11.5938 1.76138C13.2118 1 15.3012 1 19.48 1H298.52C302.699 1 304.788 1 306.406 1.76138C308.091 2.55403 309.446 3.90931 310.239 5.59377C311 7.21179 311 9.30119 311 13.48V28.52C311 32.6988 311 34.7882 310.239 36.4062C309.446 38.0907 308.091 39.446 306.406 40.2386C304.788 41 302.699 41 298.52 41H19.48C15.3012 41 13.2118 41 11.5938 40.2386C9.90931 39.446 8.55403 38.0907 7.76138 36.4062C7 34.7882 7 32.6988 7 28.52V13.48Z" fill="white"/>
<path d="M32.9631 20.909C32.9631 17.6526 31.0142 15.6789 28.3793 15.6789C25.7344 15.6789 23.7905 17.6526 23.7905 20.909C23.7905 24.1604 25.7344 26.1391 28.3793 26.1391C31.0142 26.1391 32.9631 24.1654 32.9631 20.909ZM31.4418 20.909C31.4418 23.3898 30.1293 24.7371 28.3793 24.7371C26.6243 24.7371 25.3168 23.3898 25.3168 20.909C25.3168 18.4282 26.6243 17.0809 28.3793 17.0809C30.1293 17.0809 31.4418 18.4282 31.4418 20.909Z" fill="#0A1F44"/>
<path d="M36.2456 21.4658C36.2456 20.2478 36.9913 19.5518 38.0254 19.5518C39.0347 19.5518 39.6462 20.213 39.6462 21.3217V25.9999H41.1327V21.1427C41.1327 19.2535 40.0936 18.2641 38.5325 18.2641C37.3841 18.2641 36.6334 18.7961 36.2804 19.6065H36.1859V18.3636H34.7591V25.9999H36.2456V21.4658Z" fill="#0A1F44"/>
<path d="M46.9507 25.9999H48.4869V21.5603H52.8122V20.2428H48.4869V17.1406H53.2646V15.8181H46.9507V25.9999Z" fill="#0A1F44"/>
<path d="M57.6906 26.1541C59.8433 26.1541 61.2502 24.5781 61.2502 22.2166C61.2502 19.8401 59.8433 18.2641 57.6906 18.2641C55.5379 18.2641 54.1309 19.8401 54.1309 22.2166C54.1309 24.5781 55.5379 26.1541 57.6906 26.1541ZM57.6955 24.9062C56.2886 24.9062 55.6323 23.6782 55.6323 22.2116C55.6323 20.7499 56.2886 19.507 57.6955 19.507C59.0926 19.507 59.7488 20.7499 59.7488 22.2116C59.7488 23.6782 59.0926 24.9062 57.6955 24.9062Z" fill="#0A1F44"/>
<path d="M66.1261 26.1541C67.9308 26.1541 69.0991 25.0702 69.2632 23.5837H67.8165C67.6275 24.409 66.9862 24.8962 66.1361 24.8962C64.8782 24.8962 64.0679 23.8472 64.0679 22.1818C64.0679 20.5461 64.8932 19.517 66.1361 19.517C67.0807 19.517 67.6574 20.1136 67.8165 20.8295H69.2632C69.1041 19.2883 67.8463 18.2641 66.1112 18.2641C63.9585 18.2641 62.5665 19.8849 62.5665 22.2166C62.5665 24.5184 63.9088 26.1541 66.1261 26.1541Z" fill="#0A1F44"/>
<path d="M75.6902 22.833C75.6952 24.1306 74.7307 24.7471 73.8955 24.7471C72.9757 24.7471 72.3394 24.0809 72.3394 23.0418V18.3636H70.8528V23.2208C70.8528 25.115 71.8919 26.0994 73.3585 26.0994C74.507 26.0994 75.2875 25.4928 75.6405 24.6775H75.72V25.9999H77.1817V18.3636H75.6902V22.833Z" fill="#0A1F44"/>
<path d="M84.9013 20.2279C84.5931 19.0397 83.6634 18.2641 82.0128 18.2641C80.2877 18.2641 79.0647 19.1739 79.0647 20.5262C79.0647 21.61 79.7209 22.3309 81.1527 22.6491L82.4454 22.9325C83.1812 23.0965 83.5242 23.4246 83.5242 23.9019C83.5242 24.4935 82.8928 24.9559 81.9184 24.9559C81.0285 24.9559 80.4567 24.5731 80.2777 23.8224L78.841 24.0411C79.0895 25.3934 80.2131 26.1541 81.9283 26.1541C83.7728 26.1541 85.0505 25.1746 85.0505 23.7925C85.0505 22.7137 84.3644 22.0475 82.9624 21.7244L81.7493 21.446C80.9091 21.2471 80.5462 20.9637 80.5512 20.4467C80.5462 19.86 81.1826 19.4424 82.0277 19.4424C82.9525 19.4424 83.38 19.9545 83.554 20.4666L84.9013 20.2279Z" fill="#0A1F44"/>
<path d="M92.4532 12.5369H91.1208V29.2812H92.4532V12.5369Z" fill="#0A1F44"/>
<path fill-rule="evenodd" clip-rule="evenodd" d="M289 29.3334C293.602 29.3334 297.333 25.6025 297.333 21.0001C297.333 16.3977 293.602 12.6667 289 12.6667C284.398 12.6667 280.667 16.3977 280.667 21.0001C280.667 25.6025 284.398 29.3334 289 29.3334ZM291.762 18.3275C292.087 18.0021 292.615 18.0021 292.94 18.3275C293.266 18.6529 293.266 19.1806 292.94 19.506L287.94 24.506C287.615 24.8314 287.087 24.8314 286.762 24.506L284.661 22.405C284.335 22.0795 284.335 21.5519 284.661 21.2265C284.986 20.901 285.514 20.901 285.839 21.2265L287.351 22.7382L291.762 18.3275Z" fill="#5AACFF"/>
<path d="M7 13.48C7 9.30119 7 7.21179 7.76138 5.59377C8.55403 3.90931 9.90931 2.55403 11.5938 1.76138C13.2118 1 15.3012 1 19.48 1H298.52C302.699 1 304.788 1 306.406 1.76138C308.091 2.55403 309.446 3.90931 310.239 5.59377C311 7.21179 311 9.30119 311 13.48V28.52C311 32.6988 311 34.7882 310.239 36.4062C309.446 38.0907 308.091 39.446 306.406 40.2386C304.788 41 302.699 41 298.52 41H19.48C15.3012 41 13.2118 41 11.5938 40.2386C9.90931 39.446 8.55403 38.0907 7.76138 36.4062C7 34.7882 7 32.6988 7 28.52V13.48Z" stroke="#5AACFF" stroke-width="2"/>
</g>
<defs>
<filter id="filter0_d" x="0" y="0" width="318" height="54" filterUnits="userSpaceOnUse" color-interpolation-filters="sRGB">
<feFlood flood-opacity="0" result="BackgroundImageFix"/>
<feColorMatrix in="SourceAlpha" type="matrix" values="0 0 0 0 0 0 0 0 0 0 0 0 0 0 0 0 0 0 127 0"/>
<feOffset dy="6"/>
<feGaussianBlur stdDeviation="3"/>
<feColorMatrix type="matrix" values="0 0 0 0 0 0 0 0 0 0 0 0 0 0 0 0 0 0 0.08 0"/>
<feBlend mode="normal" in2="BackgroundImageFix" result="effect1_dropShadow"/>
<feBlend mode="normal" in="SourceGraphic" in2="effect1_dropShadow" result="shape"/>
</filter>
</defs>
</svg>
