<svg width="168" height="42" viewBox="0 0 168 42" fill="none" xmlns="http://www.w3.org/2000/svg">
<path d="M10.3008 39.3281C6.08203 38.1445 3.97266 35.4199 3.97266 31.1543V27.6562C3.97266 25.1836 2.92969 23.9473 0.84375 23.9473V20.3086C2.88281 20.3086 3.92578 19.1426 3.97266 16.8105V13.084C3.97266 10.916 4.5 9.16406 5.55469 7.82812C6.60938 6.49219 8.19141 5.52539 10.3008 4.92773L11.2852 7.75781C10.3945 8.08594 9.7207 8.66016 9.26367 9.48047C8.80664 10.2891 8.56641 11.4141 8.54297 12.8555V16.5469C8.54297 19.1953 7.49414 21.0527 5.39648 22.1191C7.49414 23.1973 8.54297 25.0664 8.54297 27.7266V31.4531C8.60156 34.1953 9.51562 35.8711 11.2852 36.4805L10.3008 39.3281ZM155.918 36.4805C157.699 35.8477 158.613 34.1484 158.66 31.3828V27.6562C158.66 25.0078 159.732 23.168 161.877 22.1367C159.732 21.1055 158.66 19.2363 158.66 16.5293V12.8555C158.613 10.125 157.699 8.42578 155.918 7.75781L156.902 4.92773C159 5.51367 160.576 6.47461 161.631 7.81055C162.686 9.13477 163.219 10.875 163.23 13.0312V16.8105C163.277 19.1426 164.32 20.3086 166.359 20.3086V23.9473C164.273 23.9473 163.23 25.1719 163.23 27.6211V31.4355C163.137 35.5371 161.027 38.168 156.902 39.3281L155.918 36.4805Z" fill="#DDDBDB"/>
<circle cx="126.897" cy="22.2759" r="15.7241" fill="#F32DA0"/>
<rect x="73.1724" y="7.86218" width="30.1379" height="30.1379" rx="4" fill="#F32DA0"/>
<path d="M43.2749 7.6381C45.1922 4.26826 50.0492 4.26827 51.9665 7.63811L64.9897 30.5274C66.8862 33.8606 64.4789 38 60.6439 38H34.5975C30.7625 38 28.3552 33.8606 30.2517 30.5274L43.2749 7.6381Z" fill="#F32DA0"/>
</svg>
