<svg width="137" height="137" viewBox="0 0 137 137" fill="none" xmlns="http://www.w3.org/2000/svg">
<g clip-path="url(#clip0)">
<path d="M68.483 63.2733L80.3932 51.3632H74.5543V44.5132H85.2368H92.0868V60.8405H85.2368V56.2068L73.3267 68.117V116.75H87.8459V123.6H36.975C23.734 123.6 13 112.866 13 99.625V54.3438H19.85V63.2733H68.483Z" fill="#56A2E9"/>
<path d="M59.525 13V19.85H42.4V13H59.525ZM86.925 13V19.85H69.8V13H86.925ZM115.394 19.912L110.844 25.0325C107.107 21.7125 102.303 19.85 97.2 19.85V13C103.997 13 110.416 15.4883 115.394 19.912ZM124.6 47.5021H117.75V40.4C117.75 37.5265 117.162 34.7419 116.037 32.1716L122.313 29.4258C123.815 32.8579 124.6 36.5769 124.6 40.4V47.5021ZM124.6 74.9021H117.75V57.7771H124.6V74.9021ZM123.404 103.227L116.854 101.223C117.446 99.2896 117.75 97.2672 117.75 95.2V85.1771H124.6V95.2C124.6 97.9483 124.194 100.646 123.404 103.227ZM100.369 122.418L99.5844 115.613C104.608 115.034 109.192 112.622 112.532 108.884L117.64 113.447C113.192 118.427 107.075 121.645 100.369 122.418ZM19.9805 24.6445L25.582 28.5873C23.1656 32.0202 21.85 36.1069 21.85 40.4V43.0688H15V40.4C15 34.6838 16.7581 29.2224 19.9805 24.6445ZM42.4 13V19.85C38.7093 19.85 35.1686 20.8212 32.0553 22.6391L28.6013 16.7237C32.7558 14.2978 37.4872 13 42.4 13Z" fill="#e6e6e6"/>
</g>
<defs>
<clipPath id="clip0">
<rect width="137" height="137" fill="white"/>
</clipPath>
</defs>
</svg>
