<svg width="134" height="134" viewBox="0 0 134 134" fill="none" xmlns="http://www.w3.org/2000/svg">
<path d="M57.0888 100.267L51.7438 83.2599H27.1082L21.7632 100.267H6.69995L31.044 30.15H48.2938L72.6865 100.267H57.0888ZM39.2559 43.5611L30.2666 72.2784H48.5854L39.596 43.5611H39.2559ZM98.7312 90.8401C104.902 90.8401 110.004 86.8071 110.004 81.1705V77.3804L99.0228 78.0607C93.7264 78.4494 90.7137 80.8304 90.7137 84.5233C90.7137 88.4106 93.9207 90.8401 98.7312 90.8401ZM94.0665 101.093C84.154 101.093 76.6224 94.6788 76.6224 85.3007C76.6224 75.8255 83.911 70.3347 96.8848 69.5573L110.004 68.7798V65.3298C110.004 60.4708 106.603 57.6525 101.258 57.6525C95.9616 57.6525 92.6088 60.2764 91.9285 64.1151H78.9547C79.4892 54.0082 88.0898 47.0597 101.89 47.0597C115.252 47.0597 123.95 53.9596 123.95 64.4552V100.267H110.247V92.2978H109.956C107.04 97.8372 100.578 101.093 94.0665 101.093Z" fill="#F32DA0"/>
</svg>
