<svg preserveAspectRatio="none" xmlns="http://www.w3.org/2000/svg" viewBox="0 0 509 14"><g transform="rotate(179.27 254.5 7)"><path fill="#00bd86" d="M308.498 11.51h-2.647l-41.68-.233c-2.647 0-5.293 0-7.94-.039-5.86-.077-11.814-.194-17.768-.271l-23.912-.35-8.601-.116c-1.134 0-2.268 0-3.402-.038-12.003-.31-24.101-.66-36.104-.97l-16.73-.465c-3.118-.078-6.143-.233-9.261-.35-12.476-.465-25.047-.93-37.522-1.434-1.513-.078-3.12-.155-4.632-.233-3.118-.155-6.143-.31-9.262-.465-.378-.039-.661-.039-1.04-.039-5.954-.155-12.003-.31-18.052-.504-4.631-.155-9.167-.271-13.704-.388-.567 0-1.04-.039-1.607-.039-2.174-.038-4.442-.077-6.616-.155-1.984-.038-3.875-.116-5.765-.155-1.701-.039-3.497-.116-5.293-.194-.756-.038-1.512-.116-2.08-.349-.566-.232-.85-.543-.85-.853-3.78-.155-7.655-.31-11.436-.465a7.413 7.413 0 0 1-.756.232 8.589 8.589 0 0 1-2.835.156c-.567-.078-1.134-.194-1.607-.388-.284-.039-.473-.039-.756-.078-2.08-.077-4.064-.039-6.144-.077-1.04 0-2.173-.04-3.213-.078-.756-.039-1.418-.077-2.174-.116-.378-.039-.85-.078-1.228-.117-.473-.077-.851-.155-1.324-.232-.85-.155-1.512-.62-1.795-.97a.713.713 0 0 1 0-.853C1.234.186 2.84-.356 4.542-.318c2.174.039 4.442.116 6.71.194 1.985.077 4.065.116 6.049.194l13.327.465c2.363.078 4.82.194 7.277.272 2.647.116 5.388.193 8.034.31l18.714.93c11.34.543 22.588 1.125 33.93 1.668 2.93.039 5.765.039 8.695.078 10.869.077 21.738.155 32.607.271 5.86.039 11.72.039 17.58.078 4.442.038 8.79.038 13.232.077l69.373.466 14.46.116c1.513-.039 2.93-.078 4.348-.078 7.183-.077 14.27-.194 21.455-.271l12.003-.233c6.616-.116 13.326-.271 20.037-.388 4.442-.077 8.978-.194 13.42-.31 6.71-.194 13.327-.349 20.037-.504 4.632-.116 9.263-.194 13.894-.31l11.342-.233c1.512 0 2.929-.039 4.442-.077 6.427-.078 12.853-.194 19.28-.31 2.08 0 4.064-.078 6.049-.117 2.647-.078 5.198-.116 7.75-.194 5.482-.155 11.058-.31 16.54-.504 3.213-.116 6.332-.233 9.546-.349l5.67-.233c.095-.194.568-.388 1.135-.388.661.04 1.417.078 2.079.078.662 0 1.323 0 1.89.155.473.155.756.35.567.582-.094.155-.472.31-.85.349-1.04.077-2.174.194-3.308.233-.85.077-1.796.116-2.647.155l-4.536.232c-5.198.233-10.491.466-15.69.66-5.954.193-12.002.387-18.051.581-2.08.039-4.064.117-6.05.155-3.496.04-6.9.117-10.396.194-4.442.078-8.884.155-13.326.272-11.153.271-22.211.543-33.27.853l-13.325.349H374.373c11.153 0 22.4-.039 33.553-.078l12.853-.116c5.199-.039 10.397-.078 15.595-.155l33.836-.465 17.957-.233c2.552-.039 5.104-.039 7.656-.078 1.323 0 2.646-.038 3.97-.038.756 0 1.417 0 2.079-.04.567-.038 1.04-.038 1.607-.038.378 0 .661.039 1.04.039.566 0 1.133.077 1.606.194.19.077.378.116.567.155 1.512.388 2.268 1.086 1.796 1.784-.284.504-1.323.97-2.647 1.085-1.7.156-3.402.35-5.198.466-1.512.116-3.119.194-4.725.271-1.985.078-4.065.155-6.05.233-3.024.116-5.954.194-8.884.31-4.63.155-9.262.272-13.893.427-10.87.349-21.644.62-32.513.892-9.924.271-19.753.504-29.677.698-11.058.194-22.021.426-33.08.581-7.466.117-15.027.194-22.588.31-1.418 0-2.741.04-4.16.04h-5.764c-7.75.038-15.5.038-23.25.077-2.363.039-4.726.039-7.561.039zm48.958-3.568c-7.183-.039-14.272-.039-21.455-.039-11.625 0-23.345-.039-34.97-.077a8136.055 8136.055 0 0 1-31-.194l-30.623-.233-30.811-.233c6.143.078 12.38.194 18.524.272l22.967.349c2.93.039 5.765.116 8.695.116l40.358.233c3.119 0 6.332.039 9.546.039 6.616 0 13.23-.04 19.847-.04 5.577 0 11.058-.038 16.635-.038 1.417-.039 2.93-.039 4.442-.077 2.552 0 5.104-.04 7.845-.078z"/></g></svg>